<svg width="100%" viewBox="0 0 680 920" xmlns="http://www.w3.org/2000/svg" role="img">
<title>Full bioinformatics data engineering stack</title>
<desc>Architecture diagram: FASTQ → AWS Batch → Scanpy QC → TileDB-SOMA → PyTorch LiverTransformer</desc>
<defs>
<marker id="arrow" viewBox="0 0 10 10" refX="8" refY="5" markerWidth="6" markerHeight="6" orient="auto-start-reverse">
<path d="M2 1L8 5L2 9" fill="none" stroke="context-stroke" stroke-width="1.5" stroke-linecap="round" stroke-linejoin="round"/>
</marker>
</defs>
<rect x="20" y="20" width="200" height="96" rx="10" fill="#D3D1C7" stroke="#888780" stroke-width="0.5"/>
<text font-family="Arial" font-size="14" font-weight="500" x="120" y="44" text-anchor="middle" fill="#2C2C2A">Your Mac</text>
<text font-family="Arial" font-size="12" x="120" y="62" text-anchor="middle" fill="#5F5E5A">nextflow run main.nf</text>
<text font-family="Arial" font-size="12" x="120" y="78" text-anchor="middle" fill="#5F5E5A">-profile aws</text>
<text font-family="Arial" font-size="12" x="120" y="94" text-anchor="middle" fill="#5F5E5A">coordinator only, no compute</text>
<rect x="20" y="136" width="200" height="56" rx="10" fill="#9FE1CB" stroke="#1D9E75" stroke-width="0.5"/>
<text font-family="Arial" font-size="14" font-weight="500" x="120" y="158" text-anchor="middle" fill="#085041">Seqera Platform</text>
<text font-family="Arial" font-size="12" x="120" y="176" text-anchor="middle" fill="#0F6E56">run monitoring + Tower</text>
<line x1="120" y1="116" x2="120" y2="134" stroke="#1D9E75" stroke-width="1" stroke-dasharray="3 2" marker-end="url(#arrow)"/>
<line x1="220" y1="62" x2="280" y2="62" stroke="#888780" stroke-width="1" marker-end="url(#arrow)"/>
<text font-family="Arial" font-size="12" x="250" y="54" text-anchor="middle" fill="#5F5E5A">submit</text>
<rect x="278" y="20" width="382" height="560" rx="14" fill="#B5D4F4" stroke="#378ADD" stroke-width="0.5"/>
<text font-family="Arial" font-size="14" font-weight="500" x="469" y="44" text-anchor="middle" fill="#042C53">AWS Cloud</text>
<rect x="294" y="54" width="350" height="56" rx="8" fill="#85B7EB" stroke="#378ADD" stroke-width="0.5"/>
<text font-family="Arial" font-size="14" font-weight="500" x="469" y="76" text-anchor="middle" fill="#042C53">AWS Batch</text>
<text font-family="Arial" font-size="12" x="469" y="94" text-anchor="middle" fill="#0C447C">nextflow-batch-queue · spot · x86 · max 256 vCPU</text>
<line x1="469" y1="110" x2="469" y2="128" stroke="#378ADD" stroke-width="1" marker-end="url(#arrow)"/>
<rect x="294" y="132" width="350" height="56" rx="8" fill="#AFA9EC" stroke="#7F77DD" stroke-width="0.5"/>
<text font-family="Arial" font-size="14" font-weight="500" x="469" y="154" text-anchor="middle" fill="#26215C">nf-core/scrnaseq</text>
<text font-family="Arial" font-size="12" x="469" y="172" text-anchor="middle" fill="#3C3489">STARsolo · Cell Ranger ARC · FastQC · MultiQC</text>
<text font-family="Arial" font-size="12" x="285" y="154" text-anchor="end" fill="#888780">Ph0</text>
<line x1="469" y1="188" x2="469" y2="206" stroke="#7F77DD" stroke-width="1" marker-end="url(#arrow)"/>
<rect x="294" y="210" width="350" height="56" rx="8" fill="#AFA9EC" stroke="#7F77DD" stroke-width="0.5"/>
<text font-family="Arial" font-size="14" font-weight="500" x="469" y="232" text-anchor="middle" fill="#26215C">Scanpy QC module</text>
<text font-family="Arial" font-size="12" x="469" y="250" text-anchor="middle" fill="#3C3489">ambient RNA · doublets · norm · UMAP · leiden</text>
<text font-family="Arial" font-size="12" x="285" y="232" text-anchor="end" fill="#888780">Ph1</text>
<line x1="469" y1="266" x2="469" y2="284" stroke="#7F77DD" stroke-width="1" marker-end="url(#arrow)"/>
<rect x="294" y="288" width="350" height="56" rx="8" fill="#AFA9EC" stroke="#7F77DD" stroke-width="0.5"/>
<text font-family="Arial" font-size="14" font-weight="500" x="469" y="310" text-anchor="middle" fill="#26215C">SOMA ingestion module</text>
<text font-family="Arial" font-size="12" x="469" y="328" text-anchor="middle" fill="#3C3489">schema validation · ontology · TileDB-SOMA write</text>
<text font-family="Arial" font-size="12" x="285" y="310" text-anchor="end" fill="#888780">Ph2</text>
<line x1="469" y1="344" x2="469" y2="362" stroke="#7F77DD" stroke-width="1" marker-end="url(#arrow)"/>
<rect x="294" y="366" width="160" height="44" rx="8" fill="#85B7EB" stroke="#378ADD" stroke-width="0.5"/>
<text font-family="Arial" font-size="14" font-weight="500" x="374" y="388" text-anchor="middle" dominant-baseline="central" fill="#042C53">ECR / Docker Hub</text>
<rect x="466" y="366" width="178" height="44" rx="8" fill="#85B7EB" stroke="#378ADD" stroke-width="0.5"/>
<text font-family="Arial" font-size="14" font-weight="500" x="555" y="388" text-anchor="middle" dominant-baseline="central" fill="#042C53">Wave + Fusion</text>
<line x1="374" y1="410" x2="374" y2="424" stroke="#378ADD" stroke-width="1" stroke-dasharray="3 2" marker-end="url(#arrow)"/>
<line x1="555" y1="410" x2="555" y2="424" stroke="#378ADD" stroke-width="1" stroke-dasharray="3 2" marker-end="url(#arrow)"/>
<rect x="294" y="428" width="350" height="88" rx="8" fill="#85B7EB" stroke="#378ADD" stroke-width="0.5"/>
<text font-family="Arial" font-size="14" font-weight="500" x="469" y="450" text-anchor="middle" fill="#042C53">EC2 Spot Instances</text>
<text font-family="Arial" font-size="12" x="469" y="468" text-anchor="middle" fill="#0C447C">one per task · terminate after job · r6i / c6i / m6i</text>
<rect x="306" y="478" width="100" height="30" rx="6" fill="#B5D4F4" stroke="#378ADD" stroke-width="0.5"/>
<text font-family="Arial" font-size="12" x="356" y="497" text-anchor="middle" dominant-baseline="central" fill="#0C447C">STARsolo</text>
<rect x="416" y="478" width="100" height="30" rx="6" fill="#B5D4F4" stroke="#378ADD" stroke-width="0.5"/>
<text font-family="Arial" font-size="12" x="466" y="497" text-anchor="middle" dominant-baseline="central" fill="#0C447C">scanpy_qc.py</text>
<rect x="526" y="478" width="106" height="30" rx="6" fill="#B5D4F4" stroke="#378ADD" stroke-width="0.5"/>
<text font-family="Arial" font-size="12" x="579" y="497" text-anchor="middle" dominant-baseline="central" fill="#0C447C">ingest_soma.py</text>
<line x1="469" y1="516" x2="469" y2="534" stroke="#378ADD" stroke-width="1" marker-end="url(#arrow)"/>
<rect x="294" y="538" width="350" height="30" rx="8" fill="#FAC775" stroke="#BA7517" stroke-width="0.5"/>
<text font-family="Arial" font-size="14" font-weight="500" x="469" y="557" text-anchor="middle" dominant-baseline="central" fill="#412402">S3  nextflow-scrna-abhishek</text>
<rect x="294" y="578" width="76" height="18" rx="4" fill="#EF9F27" stroke="#BA7517" stroke-width="0.5"/>
<text font-family="Arial" font-size="12" x="332" y="591" text-anchor="middle" dominant-baseline="central" fill="#412402">raw/ FASTQs</text>
<rect x="380" y="578" width="76" height="18" rx="4" fill="#EF9F27" stroke="#BA7517" stroke-width="0.5"/>
<text font-family="Arial" font-size="12" x="418" y="591" text-anchor="middle" dominant-baseline="central" fill="#412402">work/ temp</text>
<rect x="466" y="578" width="82" height="18" rx="4" fill="#EF9F27" stroke="#BA7517" stroke-width="0.5"/>
<text font-family="Arial" font-size="12" x="507" y="591" text-anchor="middle" dominant-baseline="central" fill="#412402">results/ H5AD</text>
<rect x="558" y="578" width="66" height="18" rx="4" fill="#EF9F27" stroke="#BA7517" stroke-width="0.5"/>
<text font-family="Arial" font-size="12" x="591" y="591" text-anchor="middle" dominant-baseline="central" fill="#412402">atlas/ SOMA</text>
<rect x="294" y="600" width="88" height="18" rx="4" fill="#EF9F27" stroke="#BA7517" stroke-width="0.5"/>
<text font-family="Arial" font-size="12" x="338" y="613" text-anchor="middle" dominant-baseline="central" fill="#412402">indexes/ STAR</text>
<line x1="591" y1="591" x2="630" y2="650" stroke="#BA7517" stroke-width="1" stroke-dasharray="3 2" marker-end="url(#arrow)"/>
<rect x="440" y="652" width="220" height="78" rx="10" fill="#F5C4B3" stroke="#993C1D" stroke-width="0.5"/>
<text font-family="Arial" font-size="14" font-weight="500" x="550" y="676" text-anchor="middle" fill="#4A1B0C">PyTorch training</text>
<text font-family="Arial" font-size="12" x="550" y="694" text-anchor="middle" fill="#712B13">SOMAIterableDataset</text>
<text font-family="Arial" font-size="12" x="550" y="712" text-anchor="middle" fill="#712B13">streams S3 · rank tokenizes</text>
<text font-family="Arial" font-size="12" x="431" y="690" text-anchor="end" fill="#888780">Ph3</text>
<line x1="550" y1="730" x2="550" y2="748" stroke="#993C1D" stroke-width="1" marker-end="url(#arrow)"/>
<rect x="440" y="752" width="220" height="56" rx="10" fill="#F5C4B3" stroke="#993C1D" stroke-width="0.5"/>
<text font-family="Arial" font-size="14" font-weight="500" x="550" y="774" text-anchor="middle" fill="#4A1B0C">LiverTransformer</text>
<text font-family="Arial" font-size="12" x="550" y="792" text-anchor="middle" fill="#712B13">6L · 512D · 8H · 56.7M params</text>
<rect x="20" y="600" width="200" height="130" rx="10" fill="#D3D1C7" stroke="#888780" stroke-width="0.5"/>
<text font-family="Arial" font-size="14" font-weight="500" x="120" y="622" text-anchor="middle" fill="#2C2C2A">Local dev tools</text>
<text font-family="Arial" font-size="12" x="120" y="644" text-anchor="middle" fill="#5F5E5A">nextflow · docker buildx</text>
<text font-family="Arial" font-size="12" x="120" y="662" text-anchor="middle" fill="#5F5E5A">aws cli · gh · VS Code</text>
<text font-family="Arial" font-size="12" x="120" y="680" text-anchor="middle" fill="#5F5E5A">conda env: soma</text>
<text font-family="Arial" font-size="12" x="120" y="698" text-anchor="middle" fill="#5F5E5A">vocab_v05.json</text>
<text font-family="Arial" font-size="12" x="120" y="716" text-anchor="middle" fill="#5F5E5A">soma_dataloader.py</text>
<rect x="20" y="750" width="200" height="56" rx="10" fill="#D3D1C7" stroke="#888780" stroke-width="0.5"/>
<text font-family="Arial" font-size="14" font-weight="500" x="120" y="772" text-anchor="middle" fill="#2C2C2A">GitHub</text>
<text font-family="Arial" font-size="12" x="120" y="790" text-anchor="middle" fill="#5F5E5A">murti-abhishek/nextflow-scrna-cloud</text>
<line x1="20" y1="830" x2="660" y2="830" stroke="#D3D1C7" stroke-width="0.5"/>
<rect x="20" y="844" width="14" height="14" rx="2" fill="#AFA9EC" stroke="#7F77DD" stroke-width="0.5"/>
<text font-family="Arial" font-size="12" x="40" y="855" fill="#5F5E5A">Nextflow processes</text>
<rect x="220" y="844" width="14" height="14" rx="2" fill="#85B7EB" stroke="#378ADD" stroke-width="0.5"/>
<text font-family="Arial" font-size="12" x="240" y="855" fill="#5F5E5A">AWS infrastructure</text>
<rect x="380" y="844" width="14" height="14" rx="2" fill="#EF9F27" stroke="#BA7517" stroke-width="0.5"/>
<text font-family="Arial" font-size="12" x="400" y="855" fill="#5F5E5A">S3 storage</text>
<rect x="510" y="844" width="14" height="14" rx="2" fill="#F5C4B3" stroke="#993C1D" stroke-width="0.5"/>
<text font-family="Arial" font-size="12" x="530" y="855" fill="#5F5E5A">ML training</text>
<text font-family="Arial" font-size="12" x="340" y="900" text-anchor="middle" fill="#888780">Dashed lines = pull/stream. Solid lines = write/push.</text>
</svg>
